<svg viewBox="0 0 24 24" xmlns="http://www.w3.org/2000/svg" width="30em" height="30em">
  <path d="M10.185 20.528l5.777.685a9.938 9.938 0 01-2.732.744l-.413.043-2.632-1.472zm10.57-3.673a10.07 10.07 0 01-2.868 3.257l-.298.21-7.147-1.42 10.314-2.047zm1.158-6.14a9.984 9.984 0 01-.588 4.923l-.137.334-11.003 1.305 11.728-6.561zm-2.627-5.549A9.994 9.994 0 0121.74 9.75l.075.352-12.377 5.71 9.848-10.646zm-5.271-2.959a9.986 9.986 0 014.654 2.356l.254.237-10.649 9.848 5.741-12.44zM11.979 2c.365 0 .725.02 1.08.06l.352.044L6.808 13.9 8.129 2.767A9.986 9.986 0 0111.98 2zM2.844 7.9l.713 6L2 11.12a9.955 9.955 0 01.844-3.22zm4.417-4.72L5.18 13.642 3.73 6.333a10.07 10.07 0 013.53-3.154z" fill="#D74D31" fill-rule="evenodd"/>
</svg>
