<?xml version="1.0" encoding="utf-8"?>
<!-- Generator: Adobe Illustrator 23.0.6, SVG Export Plug-In . SVG Version: 6.00 Build 0)  -->
<svg version="1.1" id="Layer_1" xmlns="http://www.w3.org/2000/svg" xmlns:xlink="http://www.w3.org/1999/xlink" x="0px" y="0px"
	 viewBox="0 0 16 16.7" width="1em" height="1em" style="enable-background:new 0 0 16 16.7;" xml:space="preserve">
<style type="text/css">
	.st0{fill:url(#SVGID_1_);}
	.st1{fill:url(#SVGID_2_);}
	.st2{fill:url(#SVGID_3_);stroke:#FFFFFF;stroke-width:0.23;stroke-miterlimit:10;}
	.st3{enable-background:new    ;}
	.st4{fill:#FFFFFF;}
	.st5{fill:#FFFFFF;stroke:#395E79;stroke-width:3.000000e-02;stroke-miterlimit:10;}
</style>
<title>Asset 6</title>
<g>
	
		<linearGradient id="SVGID_1_" gradientUnits="userSpaceOnUse" x1="-2079.9092" y1="2.31" x2="-2079.9092" y2="22.62" gradientTransform="matrix(-1 0 0 -1 -2067.9099 18)">
		<stop  offset="0" style="stop-color:#0F3A53"/>
		<stop  offset="0.33" style="stop-color:#18425C"/>
		<stop  offset="0.87" style="stop-color:#325872"/>
		<stop  offset="1" style="stop-color:#395E79"/>
	</linearGradient>
	<path class="st0" d="M8,16c1.8-0.7,3.4-1.8,4.6-3.3l0.1,0.1c0.2-0.2,0.4-0.4,0.5-0.6c0.9-1.5,1.5-3.2,1.7-4.9
		c0.2-0.7,0.3-1.5,0.3-2.2c0-0.3,0.1-1.2-0.3-1.3c-0.2,0-0.4-0.1-0.6-0.2c-2.1-1-4-2.7-6.4-2.7V0c2.6,0,4.7,1.9,7,3
		c0.2,0.1,0.4,0.2,0.6,0.2C16.1,3.3,16,4.3,16,4.7c0,0.8-0.1,1.7-0.3,2.5c-0.2,1.9-0.9,3.7-1.9,5.4c-0.2,0.2-0.4,0.5-0.6,0.7
		l-0.1-0.1C11.7,14.7,10,16,8,16.7V16z"/>
	
		<linearGradient id="SVGID_2_" gradientUnits="userSpaceOnUse" x1="3.9955" y1="2.31" x2="3.9955" y2="22.62" gradientTransform="matrix(1 0 0 -1 0 18)">
		<stop  offset="0" style="stop-color:#0F3A53"/>
		<stop  offset="0.33" style="stop-color:#18425C"/>
		<stop  offset="0.87" style="stop-color:#325872"/>
		<stop  offset="1" style="stop-color:#395E79"/>
	</linearGradient>
	<path class="st1" d="M8,16c-1.8-0.7-3.4-1.8-4.6-3.3l-0.1,0.1c-0.2-0.2-0.4-0.4-0.5-0.6C1.8,10.7,1.2,9,1,7.2
		C0.8,6.5,0.7,5.8,0.7,5c0-0.4-0.1-1.3,0.3-1.4c0.2,0,0.4-0.1,0.6-0.2c2.1-0.9,4-2.7,6.4-2.7V0C5.4,0,3.3,1.9,1,3
		C0.8,3.1,0.6,3.2,0.4,3.2C-0.1,3.3,0,4.3,0,4.6c0,0.8,0.1,1.7,0.3,2.5c0.2,1.9,0.9,3.7,1.9,5.4c0.2,0.2,0.4,0.5,0.6,0.7l0.1-0.1
		C4.3,14.7,6,15.9,8,16.7V16z"/>
	
		<linearGradient id="SVGID_3_" gradientUnits="userSpaceOnUse" x1="7.9856" y1="2.93" x2="7.9856" y2="21.52" gradientTransform="matrix(1 0 0 -1 0 18)">
		<stop  offset="0" style="stop-color:#0F3A53"/>
		<stop  offset="0.33" style="stop-color:#18425C"/>
		<stop  offset="0.87" style="stop-color:#325872"/>
		<stop  offset="1" style="stop-color:#395E79"/>
	</linearGradient>
	<path class="st2" d="M15,3.6c-0.2,0-0.4-0.1-0.6-0.2c-2-0.9-3.8-2.4-5.9-2.7c-0.1,0-0.3,0-0.4,0c-2.4,0-4.4,1.7-6.4,2.7
		C1.4,3.5,1.2,3.6,1,3.6c-0.4,0.1-0.3,1-0.3,1.3C0.7,5.7,0.8,6.5,1,7.2c0.2,1.7,0.8,3.4,1.8,4.9l0.5,0.6l0.1-0.1
		C4.6,14.1,6.2,15.3,8,16l0.2-0.1c1.7-0.7,3.2-1.8,4.3-3.2l0.1,0.1l0.5-0.6c0.9-1.5,1.5-3.2,1.8-4.9c0.1-0.7,0.2-1.5,0.3-2.2
		C15.3,4.6,15.4,3.7,15,3.6z"/>
	<g class="st3">
		<path class="st4" d="M11.3,9c0,0.3-0.1,0.5-0.2,0.7c-0.1,0.2-0.3,0.4-0.5,0.6c-0.2,0.2-0.4,0.2-0.7,0.3l0.5,1.8H11l-0.2,0.9H9.3
			l-0.6-2.6H7.8l-0.4,1.7H8l-0.2,0.9H5.2l0.2-0.9H6l0.9-4H6.3l0.2-0.9h2.9c0.6,0,1,0.1,1.4,0.4S11.3,8.5,11.3,9z M9.7,9
			c0-0.2-0.1-0.4-0.2-0.5C9.4,8.4,9.3,8.3,9,8.3H8.4L8,9.9h0.6c0.4,0,0.6-0.1,0.8-0.2C9.6,9.5,9.7,9.3,9.7,9z"/>
	</g>
	<path class="st4" d="M11.7,5.8c-0.3,0.5-0.8,0.8-1.3,1.1C10.3,7,10.1,7.1,9.9,7.2c0-0.1-0.1-0.2-0.1-0.3c-0.1-0.5-0.5-0.6-1-0.6
		c-0.2,0-0.3,0-0.5,0.1C7.5,6.6,6.8,6.9,6,7.2C5.6,7.3,5.3,7.6,5.2,7.9c-0.1,0.3,0,0.6,0.1,0.8c-0.3,0-0.6,0.1-1,0.1
		c-0.4,0.1-0.7,0.1-1.1,0C2.8,8.8,2.7,8.5,3,8.2C3.3,7.9,3.6,7.6,4,7.4C5.4,6.6,6.8,6,8.4,5.7c0.7-0.2,1.3-0.3,2-0.4
		c0.3,0,0.6,0,0.9,0c0.2,0,0.3,0.1,0.4,0.3L11.7,5.8z"/>
	<path class="st4" d="M9.5,5C7.7,5.2,5.9,5.8,4.3,6.8C4.2,6.5,4.2,6.1,4.4,5.9c0.2-0.3,0.3-0.5,0.4-0.8c0-0.1,0-0.2,0-0.3
		c0-0.2,0.1-0.5,0.3-0.6C5.6,3.7,6.3,3.4,7,3.4h0.2c0.2,0,0.5,0.1,0.6,0.2C8.1,4,8.5,4.3,8.9,4.3c0.3,0,0.4,0.3,0.6,0.5
		C9.5,4.9,9.5,4.9,9.5,5z"/>
	<path class="st5" d="M4.1,3.2c0,0-0.1-0.1-0.1-0.1c0,0,0,0-0.1,0c-0.1,0-0.1,0.1-0.1,0.1c0,0,0,0-0.1,0c0,0-0.1,0.1-0.1,0.1
		c0,0,0,0.1,0,0.1c0,0.2,0,0.3,0.1,0.5C3.8,4,3.9,4.1,4,4.2C4,4.1,3.9,4,3.9,4l0.2,0.3c0.1,0.2,0.2,0.4,0.2,0.6
		C4.4,5,4.5,5.1,4.7,5.2C4.6,5.2,4.4,5,4.4,5s0.1,0.2,0.2,0.2s0.2,0.1,0.3,0.1C4.9,5.5,5,5.7,5.1,5.9c0,0.2,0,0,0,0L4.9,5.3
		C5,5.1,5,5,5,4.8C4.9,4.6,4.9,4.4,4.8,4.2c0,0.1-0.1,0.1-0.1,0.2c0-0.1,0-0.2,0-0.3c0,0-0.1-0.1-0.2-0.4C4.3,3.5,4.2,3.4,4.1,3.2z
		 M4.7,4.8c0,0.1,0.1,0.3,0.1,0.4l0,0C4.8,5,4.7,4.9,4.7,4.8c0-0.1-0.9-1.5-0.9-1.5C4.2,3.8,4.5,4.3,4.7,4.8z"/>
</g>
</svg>
